<?xml version="1.0" encoding="UTF-8" standalone="no"?>
<!-- Created with Inkscape (http://www.inkscape.org/) -->

<svg
   width="65.210846mm"
   height="32.009117mm"
   viewBox="0 0 65.210846 32.009117"
   version="1.1"
   id="svg1338"
   inkscape:version="1.1 (c68e22c387, 2021-05-23)"
   sodipodi:docname="bridgecraft-logo-black.svg"
   xmlns:inkscape="http://www.inkscape.org/namespaces/inkscape"
   xmlns:sodipodi="http://sodipodi.sourceforge.net/DTD/sodipodi-0.dtd"
   xmlns="http://www.w3.org/2000/svg"
   xmlns:svg="http://www.w3.org/2000/svg">
  <sodipodi:namedview
     id="namedview1340"
     pagecolor="#ffffff"
     bordercolor="#666666"
     borderopacity="1.0"
     inkscape:pageshadow="2"
     inkscape:pageopacity="0.0"
     inkscape:pagecheckerboard="0"
     inkscape:document-units="mm"
     showgrid="false"
     fit-margin-top="0"
     fit-margin-left="0"
     fit-margin-right="0"
     fit-margin-bottom="0"
     inkscape:zoom="0.77771465"
     inkscape:cx="458.39435"
     inkscape:cy="313.73975"
     inkscape:window-width="3840"
     inkscape:window-height="2054"
     inkscape:window-x="5749"
     inkscape:window-y="582"
     inkscape:window-maximized="1"
     inkscape:current-layer="layer1" />
  <defs
     id="defs1335" />
  <g
     inkscape:label="Ebene 1"
     inkscape:groupmode="layer"
     id="layer1"
     transform="translate(16.275532,-65.304721)">
    <g
       id="g1318"
       transform="matrix(1.1068251,0,0,1.1068251,-167.8418,49.672652)"
       style="fill:#000000">
      <text
         xml:space="preserve"
         style="font-style:normal;font-variant:normal;font-weight:normal;font-stretch:normal;font-size:10.5833px;line-height:1.25;font-family:'Segoe UI';-inkscape-font-specification:'Segoe UI';fill:#000000;fill-opacity:1;stroke:none;stroke-width:0.264583"
         x="136.14412"
         y="40.926441"
         id="text4390-5-9-5-2"><tspan
           sodipodi:role="line"
           id="tspan4388-2-7-0-2"
           style="font-style:normal;font-variant:normal;font-weight:bold;font-stretch:normal;font-family:Quicksand;-inkscape-font-specification:'Quicksand Bold';fill:#000000;fill-opacity:1;stroke-width:0.264583"
           x="136.14412"
           y="40.926441">BridgeCraft</tspan></text>
      <g
         id="g1292"
         transform="translate(4.7628866,-38.783505)"
         style="fill:#000000">
        <path
           id="path1181"
           style="fill:#000000;stroke-width:0.190694"
           d="m 585.82031,199.96289 c -2.28554,-4.7e-4 -4.57364,0.0574 -5.4414,0.17383 -4.45856,0.59809 -8.2775,1.61592 -12.49024,3.33008 -0.68175,0.27739 -1.49281,0.60657 -1.80273,0.73047 -1.78719,0.71426 -8.68951,4.32285 -10.38867,5.43164 -0.58334,0.38067 -1.20474,0.78054 -1.38086,0.88867 -0.17617,0.10813 -0.91224,0.59612 -1.63477,1.08398 -1.21149,0.81805 -1.89479,1.34137 -5.67383,4.34571 -0.73387,0.58342 -2.78075,2.30343 -4.55078,3.82421 -1.77003,1.52079 -3.65519,3.13737 -4.1875,3.5918 -1.95647,1.67027 -5.80581,5.37104 -9.25976,8.90039 -5.89868,6.02743 -11.09834,11.1977 -12.56446,12.49414 -1.57583,1.39344 -1.91904,2.13186 -1.57812,3.39844 0.21067,0.78234 0.52738,1.13724 1.43945,1.61914 1.19936,0.63372 2.04638,0.30315 4.03906,-1.57617 0.71517,-0.67445 5.33423,-5.22569 10.26368,-10.11328 9.53974,-9.45878 9.73477,-9.64532 12.96679,-12.41992 1.15366,-0.99043 2.31192,-1.98867 2.57422,-2.2168 6.81555,-5.92972 12.74341,-9.99802 19.25977,-13.2207 4.56616,-2.25821 7.35504,-3.22879 13.08007,-4.55274 1.27628,-0.29514 3.65932,-0.5602 6.3711,-0.70703 2.13399,-0.11556 6.43939,0.23068 8.58008,0.68945 3.29756,0.70671 6.35027,1.57761 7.75195,2.21094 0.33052,0.14933 0.69767,0.27148 0.81445,0.27148 0.11668,0 0.3608,0.0784 0.54297,0.17579 0.1821,0.0974 1.31732,0.65549 2.52344,1.23828 2.90884,1.40549 4.23578,2.16532 6.89453,3.95312 2.13558,1.436 5.51375,4.031 7.13086,5.47852 0.42421,0.3797 1.53927,1.37629 2.47851,2.21484 0.93929,0.83856 2.56709,2.34102 3.61719,3.33789 3.0186,2.86554 4.10413,3.84066 5.62891,5.0586 0.78357,0.62588 1.46699,1.18784 1.51953,1.24804 0.20954,0.24057 2.83851,2.00442 4.375,2.93555 1.81897,1.10234 5.18391,2.77148 5.58594,2.77148 0.14324,0 0.34162,0.0758 0.4414,0.16797 0.15712,0.14533 0.83582,0.36676 3.61329,1.17969 2.99757,0.87737 7.60465,1.22885 12.48046,0.95117 2.05047,-0.11678 3.98634,-0.2647 4.30078,-0.32812 0.31465,-0.0634 1.34513,-0.2274 2.28907,-0.36524 2.72647,-0.39809 5.98721,-1.02062 7.34179,-1.40039 0.36707,-0.10291 1.18126,-0.32873 1.81055,-0.50195 1.81157,-0.49869 4.88452,-1.47086 5.75195,-1.82031 0.29798,-0.12004 0.71212,-0.28636 0.92188,-0.3711 2.69015,-1.08694 4.59143,-1.94278 6.52148,-2.93554 l 2.32422,-1.19532 0.63086,0.66407 c 0.81166,0.85445 2.35993,1.85642 3.52735,2.2832 1.178,0.43068 5.14651,0.47461 6.16211,0.0684 1.49717,-0.59888 2.03649,-0.87828 2.76367,-1.42774 2.80108,-2.11645 4.12122,-5.04224 3.82226,-8.47656 -0.19094,-2.19408 -1.07865,-4.0737 -2.67187,-5.65625 -3.90202,-3.87596 -10.03942,-3.81071 -13.8086,0.14649 -1.11726,1.17301 -1.45384,1.70612 -2.05664,3.27734 -0.41302,1.0764 -0.50781,1.64545 -0.50781,3.01172 v 1.68359 l -2.40039,1.1543 c -1.31974,0.63539 -3.12805,1.45435 -4.01953,1.81836 -0.89152,0.36402 -1.87853,0.77342 -2.19336,0.91015 -0.83365,0.36226 -3.06774,1.14214 -4.38672,1.53126 -0.62929,0.18564 -1.35684,0.40949 -1.61914,0.49804 -0.26222,0.0885 -1.24942,0.33507 -2.19336,0.54688 -0.94394,0.21181 -2.10227,0.47293 -2.57422,0.58008 -6.02226,1.36732 -16.70892,1.66608 -20.31055,0.56835 -0.31463,-0.0959 -1.21535,-0.35864 -2.00195,-0.58398 -0.78659,-0.22535 -1.51155,-0.48598 -1.61133,-0.57813 -0.0994,-0.0921 -0.30024,-0.16796 -0.44726,-0.16796 -0.25572,0 -3.17839,-1.41399 -4.64258,-2.2461 -0.94329,-0.53606 -3.06932,-2.01633 -4.41797,-3.07812 -0.60937,-0.47976 -1.3864,-1.08739 -1.72656,-1.34961 -0.34008,-0.26221 -0.9571,-0.79664 -1.37109,-1.1875 l -0.75196,-0.71094 0.76172,0.11133 c 0.41953,0.0604 1.06465,0.18534 1.43164,0.2793 0.92497,0.23682 5.54724,0.21773 6.94922,-0.0293 2.85978,-0.50393 4.29339,-0.7839 5.44531,-1.0586 1.94801,-0.46452 3.31105,-0.84476 3.62891,-1.01367 0.16074,-0.0854 0.56792,-0.21521 0.9043,-0.28906 0.33622,-0.0738 0.66098,-0.21371 0.7207,-0.31055 0.0598,-0.0968 0.26093,-0.17578 0.44726,-0.17578 0.18626,0 1.17516,-0.43091 2.19922,-0.95703 l 1.86328,-0.95703 1.08594,1.00391 c 1.84766,1.70753 3.71132,2.43025 6.2832,2.43359 0.87534,10e-4 2.07692,-0.13247 2.66993,-0.29688 1.16163,-0.32207 2.37376,-0.85286 2.47656,-1.08398 0.0348,-0.0786 0.17121,-0.14258 0.30273,-0.14258 0.13138,0 0.81301,-0.59643 1.51563,-1.32422 2.11876,-2.19467 2.88697,-4.48572 2.58008,-7.69922 -0.37837,-3.96104 -3.73814,-7.35504 -7.89063,-7.97265 -3.22099,-0.47906 -6.06932,0.44325 -8.30469,2.68945 -1.79879,1.8075 -2.45127,3.28475 -2.64062,5.97852 l -0.11914,1.68554 -1.33399,0.74024 c -2.08921,1.16142 -4.99518,2.21489 -8.10546,2.9375 -2.56929,0.59691 -3.6101,0.72495 -6.57813,0.80859 -2.40813,0.0679 -3.39254,0.017 -4.67187,-0.24414 -0.89148,-0.182 -1.70781,-0.39293 -1.8125,-0.46875 -0.10489,-0.0759 -0.48798,-0.2014 -0.85157,-0.2793 -0.36366,-0.0778 -0.79249,-0.20661 -0.95312,-0.28515 -0.16078,-0.0786 -1.02259,-0.42488 -1.91406,-0.76953 -2.90106,-1.12152 -6.8618,-3.27045 -9.15235,-4.96485 -2.38084,-1.76115 -4.88253,-3.43462 -6.38867,-4.27343 -3.11679,-1.73587 -3.96511,-2.19532 -4.04297,-2.19532 -0.0479,0 -0.7442,-0.30813 -1.54883,-0.68359 -0.80462,-0.37546 -1.63594,-0.75053 -1.8457,-0.83398 -0.20976,-0.0834 -0.63829,-0.25657 -0.95313,-0.38477 -3.1918,-1.30053 -7.78867,-2.44921 -12.20312,-3.04883 -0.85962,-0.11676 -3.14415,-0.1753 -5.42969,-0.17578 z m 77.40039,8.57813 c 1.56163,0.0332 3.12629,0.88254 3.90625,2.53125 0.64577,1.36822 0.64745,2.49122 0.004,3.85156 -0.55019,1.163 -1.29137,1.81537 -2.55859,2.25586 0,0 -0.002,0 -0.002,0 -1.04256,0.36176 -1.76466,0.36349 -2.74609,0.004 -2.59249,-0.94983 -3.69391,-3.7288 -2.48828,-6.27734 0.76446,-1.61592 2.32314,-2.39839 3.88476,-2.36523 z m 34.16797,11.02539 c 0.0387,-3.9e-4 0.0784,-5.8e-4 0.11719,0 1.23999,0.0183 2.47869,0.52715 3.32812,1.51953 1.90564,2.2263 1.2067,5.62157 -1.41992,6.89062 -1.84067,0.8893 -4.24372,0.22746 -5.51758,-1.51953 -0.52044,-0.71373 -0.6286,-1.048 -0.68945,-2.12695 -0.0859,-1.52084 0.18144,-2.44705 0.96875,-3.34375 0.82274,-0.93706 2.01197,-1.40804 3.21289,-1.41992 z"
           transform="scale(0.26458333)" />
        <path
           id="path1177"
           style="fill:#000000;stroke-width:0.190694"
           d="m 584.53906,211.6582 c -2.43572,-0.003 -4.81374,0.0795 -5.9707,0.25391 -2.66222,0.40142 -6.74645,1.44829 -8.29492,2.125 -0.20977,0.0917 -0.85477,0.35534 -1.43164,0.58789 -1.78575,0.71988 -3.06668,1.37484 -5.24414,2.67969 -1.80106,1.07928 -5.33096,3.45834 -5.625,3.79101 -0.0524,0.0594 -0.7388,0.62152 -1.52539,1.24805 -4.1983,3.3439 -10.89532,10.0785 -16.68555,16.7793 -5.49358,6.35744 -6.87966,7.86139 -11.24414,12.20898 -2.2111,2.20251 -4.44653,4.3568 -4.96875,4.78711 l -0.94922,0.7832 v 1.25196 c 0,1.0729 0.0681,1.32387 0.47656,1.75976 0.78437,0.83702 1.65774,1.11317 2.65039,0.83594 0.72503,-0.20248 1.48997,-0.88407 5.63672,-5.01758 2.63868,-2.63025 5.22187,-5.25493 5.74024,-5.83398 0.51836,-0.57905 1.37012,-1.5238 1.89453,-2.09961 0.52441,-0.57581 1.51161,-1.68693 2.19336,-2.46875 0.68171,-0.78182 1.66895,-1.90027 2.19336,-2.48438 0.52441,-0.5841 1.5116,-1.7004 2.19335,-2.48242 5.18026,-5.94233 11.05085,-11.69973 14.87305,-14.58398 0.68172,-0.51444 1.2834,-0.98807 1.33594,-1.05274 0.18856,-0.23257 4.5055,-3.01614 5.625,-3.62695 1.66836,-0.91027 1.60537,-0.8791 3.00977,-1.50586 2.87123,-1.28142 5.99182,-2.14586 9.67187,-2.67969 2.68766,-0.38988 8.92287,-0.19511 11.72656,0.36719 5.34414,1.07179 11.3624,3.99443 16.40039,7.96484 3.68731,2.90596 4.27409,3.43 10.77344,9.60352 8.00636,7.60495 13.80714,11.77828 21.72461,15.63281 1.30224,0.63398 2.80272,1.32892 3.33594,1.54492 0.53321,0.21599 1.1418,0.46945 1.35156,0.5625 2.29773,1.0193 7.497,2.62493 10.77344,3.32618 0.78663,0.16834 1.77383,0.38538 2.19336,0.48437 2.81382,0.66398 10.8102,1.48646 14.61328,1.50195 2.57851,0.0104 2.67708,0.0457 2.91406,1.03516 0.50294,2.10071 3.51951,4.79433 6.21484,5.55078 1.77317,0.49764 4.57683,0.2815 6.57813,-0.50781 1.80998,-0.71388 3.92653,-2.75259 4.7168,-4.54297 0.78773,-1.78464 0.90782,-2.33054 0.89648,-4.05664 -0.0196,-2.73248 -0.94378,-4.88877 -2.88672,-6.74024 -1.95798,-1.8658 -3.76157,-2.58455 -6.49609,-2.58984 -2.92728,-0.006 -4.854,0.72818 -6.78125,2.58594 -1.13401,1.09309 -1.79477,2.10564 -2.25391,3.45312 l -0.30859,0.9043 -2.5957,-0.10156 c -3.15043,-0.12459 -6.92462,-0.43363 -8.60352,-0.70508 -4.19754,-0.67865 -6.71939,-1.16157 -7.91406,-1.51367 -0.31465,-0.0928 -0.87325,-0.2274 -1.24024,-0.29883 -0.36707,-0.0714 -1.09668,-0.26005 -1.62109,-0.41992 -1.8429,-0.56187 -4.39,-1.39673 -4.76758,-1.5625 -0.20976,-0.0921 -1.66701,-0.70969 -3.24023,-1.37305 -2.82509,-1.1912 -3.1915,-1.36655 -5.62696,-2.6875 -1.35031,-0.7324 -1.76754,-0.9778 -3.74023,-2.20898 -2.28363,-1.42523 -5.01207,-3.42059 -7.21875,-5.27735 -0.62691,-0.52748 -1.35079,-1.13203 -1.60742,-1.34179 -0.91888,-0.75097 -3.39158,-3.05973 -7.57813,-7.07618 -0.64407,-0.61792 -1.84568,-1.72891 -2.66992,-2.46875 -1.27196,-1.14169 -2.20309,-1.92544 -5.50391,-4.63476 -0.20984,-0.17222 -0.59512,-0.45941 -0.85742,-0.63867 -0.26215,-0.17929 -0.94856,-0.66924 -1.52539,-1.08985 -2.16272,-1.57695 -6.83732,-4.20806 -8.86719,-4.99023 -0.20976,-0.0808 -0.68183,-0.27024 -1.04882,-0.42188 -2.18567,-0.90288 -4.92004,-1.65258 -8.00977,-2.19531 -1.21095,-0.21271 -4.04421,-0.3265 -6.80469,-0.33008 z m 99.97266,39.23633 c 0.30117,-0.0137 0.61804,0.0352 1.10937,0.13672 1.30277,0.26908 2.23489,0.90394 2.94922,2.00977 0.42248,0.65371 0.49675,0.98746 0.5,2.20117 0.004,1.63473 -0.29588,2.43553 -1.26953,3.375 -0.34775,0.33555 -0.95186,0.74166 -1.3418,0.90429 -1.4307,0.59672 -3.49639,0.24217 -4.57031,-0.78515 -1.10294,-1.0553 -1.39037,-1.7427 -1.38281,-3.30469 0.0105,-2.18999 1.02528,-3.65333 2.98633,-4.30469 0.4316,-0.14335 0.71836,-0.21876 1.01953,-0.23242 z"
           transform="scale(0.26458333)" />
        <path
           id="path1173"
           style="fill:#000000;stroke-width:0.190694"
           d="m 584.79492,223 c -2.44161,0.005 -4.82433,0.3522 -7.27539,1.03906 -2.04193,0.5722 -6.10479,2.40928 -7.58984,3.4336 -0.39795,0.27451 -0.76746,0.5 -0.82227,0.5 -0.1008,0 -3.42674,2.48126 -4.40039,3.2832 -3.24223,2.67038 -9.58351,9.44502 -13.88476,14.83203 -0.62809,0.78661 -1.18739,1.47297 -1.24219,1.52539 -0.0548,0.0524 -0.55805,0.65421 -1.11719,1.33594 -1.37647,1.6783 -2.46414,2.97568 -3.27148,3.90039 -0.37025,0.42408 -1.00172,1.18115 -1.40235,1.68359 -0.40067,0.50245 -1.40582,1.6467 -2.23437,2.54102 -1.48377,1.60277 -1.50781,1.63912 -1.50781,2.6289 -10e-6,0.86695 0.0891,1.10713 0.64648,1.75196 0.63609,0.73591 0.66543,0.74609 1.97852,0.74609 1.31414,0 1.34353,-0.01 2.07226,-0.7832 0.84911,-0.90141 1.87085,-2.10948 3.85352,-4.55078 0.76921,-0.94711 1.54218,-1.8918 1.71679,-2.10157 0.17477,-0.20976 0.87493,-1.06914 1.55664,-1.9082 0.68175,-0.83905 1.2875,-1.56867 1.34571,-1.62109 0.0583,-0.0524 0.69381,-0.82335 1.41211,-1.71485 9.41574,-11.68597 16.50069,-17.86035 22.98632,-20.02929 3.15349,-1.05459 3.95807,-1.18499 7.3418,-1.20313 3.28384,-0.0176 4.52656,0.15327 6.95899,0.96289 2.59392,0.86338 4.99763,2.19097 7.5332,4.16016 1.44491,1.12216 4.06715,3.71501 5.00976,4.95508 1.05823,1.39211 2.20349,3.04983 2.92969,4.23633 0.73058,1.19363 2.64453,4.99804 2.64453,5.25781 0,0.0632 -0.62408,0.74235 -1.38672,1.50781 -2.05598,2.06365 -2.99426,4.18932 -2.99804,6.79688 -0.007,4.42994 2.87308,8.05944 7.33984,9.25195 0.80308,0.21438 4.57279,-0.03 5.33984,-0.3457 1.8488,-0.76107 2.79163,-1.39768 4.00391,-2.70313 0.66244,-0.71337 0.96118,-1.1956 1.8457,-2.98633 0.0922,-0.18693 0.24826,-0.98045 0.34766,-1.76367 0.40547,-3.19815 -0.46048,-5.88958 -2.58594,-8.03711 -1.64375,-1.66083 -3.30907,-2.4164 -6.32226,-2.86914 -0.41431,-0.0622 -0.65438,-0.22582 -0.73828,-0.50195 -0.31473,-1.03356 -1.99898,-4.56774 -2.22461,-4.66797 -0.0786,-0.035 -0.14258,-0.15167 -0.14258,-0.25977 0,-0.43559 -2.78734,-4.57825 -4.42188,-6.57226 -1.1636,-1.41947 -3.85438,-4.05756 -5.39843,-5.29297 -2.52167,-2.01765 -3.92201,-2.8423 -7.75196,-4.56445 -0.38294,-0.17216 -0.82065,-0.31446 -0.9707,-0.31446 -0.15031,0 -0.3374,-0.064 -0.41602,-0.14258 -0.0786,-0.0786 -0.585,-0.25437 -1.12695,-0.39062 -2.68849,-0.67593 -5.18925,-1.01106 -7.63086,-1.00586 z m 30.42578,28.80859 c 0.69383,0.008 1.3807,0.13379 1.85352,0.375 1.39706,0.71273 2.49219,2.50417 2.49219,4.07618 0,1.41643 -1.21329,3.30658 -2.53125,3.94335 -0.89364,0.43174 -2.76797,0.49172 -3.61719,0.11524 -0.81373,-0.36074 -1.86532,-1.46574 -2.26172,-2.375 -0.93162,-2.13676 0.0761,-4.83075 2.17187,-5.80078 0.49813,-0.23057 1.19875,-0.3416 1.89258,-0.33399 z"
           transform="scale(0.26458333)" />
      </g>
    </g>
  </g>
</svg>
